# xmcd
#
# Track frame offsets:
#	150
#	17068
#	35635
#	46850
#	61968
#	71813
#	89725
#	103070
#	117730
#	132515
#	144740
#	157815
#	172235
#	184600
#	198518
#
# Disc length: 2815 seconds
#
# Revision: 2
# Processed by: cddbd v1.5.2PL0 Copyright (c) Steve Scherf et al.
# Submitted via: audiograbber 1.83.01
#
DISCID=e50afd0f
DTITLE=MS® - Te Acuerdas? Vol.2
DYEAR=1985
DGENRE=Ballad
TTITLE0=Gualberto Castro - Hasta Que Vuelvas
TTITLE1=Miguel Bose - Morir De Amor
TTITLE2=Leo Dan - Nunca Me Impediras Amarte
TTITLE3=Vikki Carr - Disculpame
TTITLE4=Juanello - Lo Dudo
TTITLE5=Albert Hammond - Ansiedad
TTITLE6=Sonia Rivas - Estupida
TTITLE7=Manoella Torres - Si Supieras
TTITLE8=Sandro - Penas
TTITLE9=Pecos - Señor
TTITLE10=Piero - Si Vos Te Vas
TTITLE11=Yoshio - Lo Que Paso Paso
TTITLE12=Fedra Y Maximiliano - Cuentame
TTITLE13=Leo Dan - Con Los Brazos Cruzados
TTITLE14=Astros - Porque No Fui Tu Amigo Nada Mas
EXTD=MS®
EXTT0=
EXTT1=
EXTT2=
EXTT3=
EXTT4=
EXTT5=
EXTT6=
EXTT7=
EXTT8=
EXTT9=
EXTT10=
EXTT11=
EXTT12=
EXTT13=
EXTT14=
PLAYORDER=
